<svg xmlns="http://www.w3.org/2000/svg" id="Layer_1" viewBox="0 0 363.2 349.7" width="363.2" height="349.7"><style>.st0,.st1{fill:none;stroke:#000;stroke-width:6;stroke-miterlimit:10}.st1{fill:#fff}</style><path d="M50 239.4h62.4s-12.4 36 7.3 52.3 19.1 40.5-3.9 42.7-37.1-1.7-39.3-3.4c-2.4-1.7-26.5-91.6-26.5-91.6z" class="st0"/><path d="M295.6 11.3S196.5 117.4 119.8 119H33.5s-32 14.4-28 56.7 16 44.7 29.6 48.7c0 0 159.8-14.4 199 48.7 0 0 45.5 62.2 58.3 61.4 12.8-.8 3.2-323.2 3.2-323.2z" class="st1"/><ellipse cx="298.1" cy="169.1" class="st1" rx="33.3" ry="133"/><ellipse cx="302.4" cy="170.7" class="st1" rx="54.9" ry="166.7"/><ellipse cx="271.9" cy="177" class="st0" rx="24.3" ry="24.3" transform="rotate(-80.781 271.903 176.999)"/><path d="M55.3 149.3s90.6 18.4 183.6-49.7v138.7s-101-60.9-182-44.1c0 0-21.7-27.3-1.6-44.9z" class="st1"/></svg>