<svg height="364.4" viewBox="0 0 525.6 364.4" width="525.6" xmlns="http://www.w3.org/2000/svg"><g stroke="#000" stroke-miterlimit="10" stroke-width="7"><path d="m463.6 304.6h-401.6c-9.9 0-17.9-8-17.9-17.9v-268.8c0-9.9 8-17.9 17.9-17.9h401.7c9.9 0 17.9 8 17.9 17.9v268.8c-.1 9.9-8.1 17.9-18 17.9z" fill="none"/><path d="m65.6 23.3h396.1v228.7h-396.1z" fill="#fff"/><g fill="none"><path d="m215.9 314.5h97.1v22l28.4 28.5h-153l27.6-27.7z"/><circle cx="328" cy="95" r="23.5"/><path d="m174.1 147.5 117.4-44.5m20.5 19.4-88.5 89.1m4.3-49.8 69.6-46.1" stroke-linecap="round" stroke-linejoin="round"/></g></g></svg>