<svg height="290.2" viewBox="0 0 349.5 290.2" width="349.5" xmlns="http://www.w3.org/2000/svg"><g stroke="#000" stroke-miterlimit="10" stroke-width="6"><circle cx="71.9" cy="72.7" fill="#fff" r="65.1"/><circle cx="176.3" cy="73.2" fill="#fff" r="65.1"/><path d="m247.2 152.1h14.2v81.7h-14.2z" fill="none"/><path d="m16.6 130h214.8v127.1h-74.2v-26.4h-65.1v27.7h-75.5z" fill="#fff"/><g fill="none"><path d="m274.5 158v71.1l66.3 39.1v-150.4zm-173.6 81.5h47.9v44.1h-47.9z"/><circle cx="70.1" cy="74.1" r="14.7"/><circle cx="179.5" cy="74.1" r="14.7"/></g><path d="m214.3 165.5h-180c-2.9 0-5.2-2.3-5.2-5.2s2.3-5.2 5.2-5.2h180c2.9 0 5.2 2.3 5.2 5.2s-2.3 5.2-5.2 5.2zm-160.9 32.4h-19.7c-2.7 0-4.9-2.2-4.9-4.9s2.2-4.9 4.9-4.9h19.7c2.7 0 4.9 2.2 4.9 4.9s-2.2 4.9-4.9 4.9zm0 20.9h-19.7c-2.7 0-4.9-2.2-4.9-4.9s2.2-4.9 4.9-4.9h19.7c2.7 0 4.9 2.2 4.9 4.9s-2.2 4.9-4.9 4.9z" fill="#fff"/></g></svg>