<svg xmlns="http://www.w3.org/2000/svg" id="Layer_1" viewBox="0 0 349.5 290.2" width="349.5" height="290.2"><style>.st0{fill:none;stroke:#000;stroke-width:6;stroke-miterlimit:10}</style><path d="M152.3 62.4s18 11.4 43.5 0S274 18.3 312.1 77.1s52.1 203.3-4.7 190.7c0 0-26.3-7.6-63.7-56 0 0-5.5-3.4-14.3-3.7H120.1s-9.9-.3-15 6.8-47.3 56.1-69.8 54-36.8-36.3-27.3-109S60.5 49.8 77 46.3s33.3-10.6 75.3 16.1z" class="st0"/><circle cx="243.1" cy="99.8" r="18.6" class="st0"/><circle cx="288.4" cy="126.7" r="18.6" class="st0"/><circle cx="242.2" cy="150.1" r="18.6" class="st0"/><path d="M88.5 110.3V85.2h26.6v25.6h26v26.7h-25.8v25.1H88v-25.1H62.9v-27.4z" class="st0"/></svg>