<svg xmlns="http://www.w3.org/2000/svg" id="Layer_1" viewBox="0 0 349.5 290.2" width="349.5" height="290.2"><style>.st0,.st1{fill:#fff;stroke:#000;stroke-width:6;stroke-miterlimit:10}.st1{fill:none}</style><circle cx="71.9" cy="72.7" r="65.1" class="st0"/><circle cx="176.3" cy="73.2" r="65.1" class="st0"/><path d="M247.2 152.1h14.2v81.7h-14.2z" class="st1"/><path d="M16.6 130h214.8v127.1h-74.2v-26.4H92.1v27.7H16.6z" class="st0"/><path d="M274.5 158v71.1l66.3 39.1V117.8zm-173.6 81.5h47.9v44.1h-47.9z" class="st1"/><circle cx="70.1" cy="74.1" r="14.7" class="st1"/><circle cx="179.5" cy="74.1" r="14.7" class="st1"/><path d="M214.3 165.5h-180c-2.9 0-5.2-2.3-5.2-5.2 0-2.9 2.3-5.2 5.2-5.2h180c2.9 0 5.2 2.3 5.2 5.2 0 2.9-2.3 5.2-5.2 5.2zM53.4 197.9H33.7c-2.7 0-4.9-2.2-4.9-4.9s2.2-4.9 4.9-4.9h19.7c2.7 0 4.9 2.2 4.9 4.9s-2.2 4.9-4.9 4.9zm0 20.9H33.7c-2.7 0-4.9-2.2-4.9-4.9s2.2-4.9 4.9-4.9h19.7c2.7 0 4.9 2.2 4.9 4.9s-2.2 4.9-4.9 4.9z" class="st0"/></svg>