<svg height="349.7" viewBox="0 0 363.2 349.7" width="363.2" xmlns="http://www.w3.org/2000/svg"><g stroke="#000" stroke-miterlimit="10" stroke-width="6"><path d="m50 239.4h62.4s-12.4 36 7.3 52.3 19.1 40.5-3.9 42.7-37.1-1.7-39.3-3.4c-2.4-1.7-26.5-91.6-26.5-91.6z" fill="none"/><g fill="#fff"><path d="m295.6 11.3s-99.1 106.1-175.8 107.7h-86.3s-32 14.4-28 56.7 16 44.7 29.6 48.7c0 0 159.8-14.4 199 48.7 0 0 45.5 62.2 58.3 61.4s3.2-323.2 3.2-323.2z"/><ellipse cx="298.1" cy="169.1" rx="33.3" ry="133"/><ellipse cx="302.4" cy="170.7" rx="54.9" ry="166.7"/></g><ellipse cx="271.9" cy="177" fill="none" rx="24.3" ry="24.3" transform="matrix(.16020853 -.98708319 .98708319 .16020853 53.629083 417.033132)"/><path d="m55.3 149.3s90.6 18.4 183.6-49.7v138.7s-101-60.9-182-44.1c0 0-21.7-27.3-1.6-44.9z" fill="#fff"/></g></svg>