<svg xmlns="http://www.w3.org/2000/svg" id="Layer_1" viewBox="0 0 525.6 364.4" width="525.6" height="364.4"><style>.st0{fill:none}.st0,.st1,.st2{stroke:#000;stroke-width:7;stroke-miterlimit:10}.st1{fill:#fff}.st2{fill:none;stroke-linecap:round;stroke-linejoin:round}</style><path d="M463.6 304.6H62c-9.9 0-17.9-8-17.9-17.9V17.9C44.1 8 52.1 0 62 0h401.7c9.9 0 17.9 8 17.9 17.9v268.8c-.1 9.9-8.1 17.9-18 17.9z" class="st0"/><path d="M65.6 23.3h396.1V252H65.6z" class="st1"/><path d="M215.9 314.5H313v22l28.4 28.5h-153l27.6-27.7z" class="st0"/><circle cx="328" cy="95" r="23.5" class="st0"/><path d="M174.1 147.5L291.5 103m20.5 19.4l-88.5 89.1m4.3-49.8l69.6-46.1" class="st2"/></svg>