<svg height="290.2" viewBox="0 0 349.5 290.2" width="349.5" xmlns="http://www.w3.org/2000/svg"><g fill="none" stroke="#000" stroke-miterlimit="10" stroke-width="6"><path d="m152.3 62.4s18 11.4 43.5 0 78.2-44.1 116.3 14.7 52.1 203.3-4.7 190.7c0 0-26.3-7.6-63.7-56 0 0-5.5-3.4-14.3-3.7h-109.3s-9.9-.3-15 6.8-47.3 56.1-69.8 54-36.8-36.3-27.3-109 52.5-110.1 69-113.6 33.3-10.6 75.3 16.1z"/><circle cx="243.1" cy="99.8" r="18.6"/><circle cx="288.4" cy="126.7" r="18.6"/><circle cx="242.2" cy="150.1" r="18.6"/><path d="m88.5 110.3v-25.1h26.6v25.6h26v26.7h-25.8v25.1h-27.3v-25.1h-25.1v-27.4z"/></g></svg>